<svg width="24" height="23" viewBox="0 0 24 23" fill="none" xmlns="http://www.w3.org/2000/svg">
<path d="M15.7031 1.93652H7.84162C4.42684 1.93652 2.39111 3.97225 2.39111 7.38703V15.2485C2.39111 18.6633 4.42684 20.699 7.84162 20.699H15.7031C19.1179 20.699 21.1536 18.6633 21.1536 15.2485V7.38703C21.1536 3.97225 19.1179 1.93652 15.7031 1.93652ZM9.86797 14.0383L7.75719 16.1491C7.61647 16.2898 7.43823 16.3555 7.25998 16.3555C7.08174 16.3555 6.89411 16.2898 6.76278 16.1491L6.05918 15.4455C5.77774 15.1735 5.77774 14.7232 6.05918 14.4511C6.33124 14.1791 6.77216 14.1791 7.05359 14.4511L7.25998 14.6575L8.87356 13.0439C9.14561 12.7719 9.58653 12.7719 9.86797 13.0439C10.14 13.316 10.14 13.7663 9.86797 14.0383ZM9.86797 7.47146L7.75719 9.58224C7.61647 9.72296 7.43823 9.78863 7.25998 9.78863C7.08174 9.78863 6.89411 9.72296 6.76278 9.58224L6.05918 8.87865C5.77774 8.60659 5.77774 8.15629 6.05918 7.88424C6.33124 7.61218 6.77216 7.61218 7.05359 7.88424L7.25998 8.09062L8.87356 6.47705C9.14561 6.20499 9.58653 6.20499 9.86797 6.47705C10.14 6.7491 10.14 7.1994 9.86797 7.47146ZM16.9883 15.6519H12.0632C11.6786 15.6519 11.3596 15.3329 11.3596 14.9483C11.3596 14.5637 11.6786 14.2447 12.0632 14.2447H16.9883C17.3824 14.2447 17.6919 14.5637 17.6919 14.9483C17.6919 15.3329 17.3824 15.6519 16.9883 15.6519ZM16.9883 9.08504H12.0632C11.6786 9.08504 11.3596 8.76607 11.3596 8.38144C11.3596 7.99681 11.6786 7.67785 12.0632 7.67785H16.9883C17.3824 7.67785 17.6919 7.99681 17.6919 8.38144C17.6919 8.76607 17.3824 9.08504 16.9883 9.08504Z" fill="#A1A9B8"/>
</svg>
