<svg width="24" height="24" viewBox="0 0 24 24" fill="none" xmlns="http://www.w3.org/2000/svg">
<path d="M19.7461 10.526H17.0349C14.8116 10.526 13.001 8.71544 13.001 6.49208V3.7809C13.001 3.26493 12.5788 2.84277 12.0629 2.84277H8.08522C5.19579 2.84277 2.85986 4.71902 2.85986 8.06813V16.3799C2.85986 19.729 5.19579 21.6053 8.08522 21.6053H15.4589C18.3483 21.6053 20.6842 19.729 20.6842 16.3799V11.4641C20.6842 10.9482 20.2621 10.526 19.7461 10.526Z" fill="#A1A9B8"/>
<path d="M15.3368 3.04022C14.9522 2.65559 14.2861 2.91827 14.2861 3.453V6.72705C14.2861 8.09671 15.4494 9.23185 16.866 9.23185C17.7572 9.24123 18.9955 9.24123 20.0556 9.24123C20.5903 9.24123 20.8718 8.61268 20.4965 8.23743C19.1456 6.87715 16.7253 4.42865 15.3368 3.04022Z" fill="#A1A9B8"/>
</svg>
