<svg width="24" height="24" viewBox="0 0 24 24" fill="none" xmlns="http://www.w3.org/2000/svg">
<path d="M15.7031 2.74902H7.84162C4.42684 2.74902 2.39111 4.78475 2.39111 8.19953V16.0516C2.39111 19.4758 4.42684 21.5115 7.84162 21.5115H15.6937C19.1085 21.5115 21.1442 19.4758 21.1442 16.061V8.19953C21.1536 4.78475 19.1179 2.74902 15.7031 2.74902ZM9.06118 16.7271C9.06118 16.9898 8.85479 17.1961 8.59212 17.1961H5.97475C5.71208 17.1961 5.50569 16.9898 5.50569 16.7271V12.3929C5.50569 11.8019 5.98413 11.3235 6.57515 11.3235H8.59212C8.85479 11.3235 9.06118 11.5299 9.06118 11.7925V16.7271ZM13.5454 16.7271C13.5454 16.9898 13.339 17.1961 13.0764 17.1961H10.459C10.1963 17.1961 9.98993 16.9898 9.98993 16.7271V8.13386C9.98993 7.54284 10.4684 7.0644 11.0594 7.0644H12.4853C13.0764 7.0644 13.5548 7.54284 13.5548 8.13386V16.7271H13.5454ZM18.039 16.7271C18.039 16.9898 17.8327 17.1961 17.57 17.1961H14.9526C14.6899 17.1961 14.4835 16.9898 14.4835 16.7271V13.3967C14.4835 13.1341 14.6899 12.9277 14.9526 12.9277H16.9696C17.5606 12.9277 18.039 13.4061 18.039 13.9971V16.7271Z" fill="#A1A9B8"/>
</svg>
