<svg width="24" height="24" viewBox="0 0 24 24" fill="none" xmlns="http://www.w3.org/2000/svg">
<path d="M16.463 4.11426H7.08174C4.26736 4.11426 2.39111 5.52145 2.39111 8.80488V15.3718C2.39111 18.6552 4.26736 20.0624 7.08174 20.0624H16.463C19.2774 20.0624 21.1536 18.6552 21.1536 15.3718V8.80488C21.1536 5.52145 19.2774 4.11426 16.463 4.11426ZM16.9039 9.82744L13.9676 12.1728C13.3484 12.67 12.5604 12.9139 11.7724 12.9139C10.9843 12.9139 10.1869 12.67 9.57715 12.1728L6.64082 9.82744C6.34062 9.58353 6.29371 9.13323 6.52824 8.83303C6.77216 8.53283 7.21308 8.47654 7.51328 8.72045L10.4496 11.0658C11.1626 11.638 12.3728 11.638 13.0857 11.0658L16.0221 8.72045C16.3223 8.47654 16.7726 8.52345 17.0071 8.83303C17.251 9.13323 17.2041 9.58353 16.9039 9.82744Z" fill="#A1A9B8"/>
</svg>
