<svg width="32" height="32" viewBox="0 0 32 32" fill="none" xmlns="http://www.w3.org/2000/svg">
<path fill-rule="evenodd" clip-rule="evenodd" d="M16 26C21.5228 26 26 21.5228 26 16C26 10.4772 21.5228 6 16 6C10.4772 6 6 10.4772 6 16C6 21.5228 10.4772 26 16 26ZM14.1314 13.1429H11.7143C11.7143 10.5714 13.5475 8.85714 16.2857 8.85714C18.8366 8.85714 20.5714 10.4936 20.5714 12.7143C20.5714 14.1563 19.9719 15.2021 18.7143 16C17.528 16.7402 17.0571 17.0671 17.0571 17.99L17.1286 18.8571H14.7714L14.6714 17.9708C14.5555 16.4326 15.1977 15.6358 16.4286 14.8571C17.5792 14.1169 17.8571 13.7512 17.8571 12.8571C17.8571 11.8655 17.1313 11.1644 16 11.1644C14.8687 11.1644 14.1849 12.0854 14.1314 13.1429ZM17.5832 21.7818C17.5832 22.7912 16.9677 23.4161 15.9688 23.4161C14.9698 23.4161 14.3455 22.7912 14.3455 21.7818C14.3455 20.7627 14.9698 20.1379 15.9688 20.1379C16.9677 20.1379 17.5832 20.7627 17.5832 21.7818Z" fill="#3339CD"/>
</svg>
