<svg width="38" height="38" viewBox="0 0 38 38" fill="none" xmlns="http://www.w3.org/2000/svg">
<rect x="0.00976562" y="0.00976562" width="37.525" height="37.525" rx="18.7625" fill="#3339CD"/>
<path d="M6.0247 23.0098V14.8225H7.50785V21.7665H11.1138V23.0098H6.0247ZM15.0155 23.1297C14.4159 23.1297 13.8962 22.9978 13.4564 22.7339C13.0167 22.4701 12.6755 22.101 12.433 21.6266C12.1931 21.1522 12.0732 20.5978 12.0732 19.9635C12.0732 19.3292 12.1931 18.7735 12.433 18.2965C12.6755 17.8194 13.0167 17.449 13.4564 17.1851C13.8962 16.9213 14.4159 16.7894 15.0155 16.7894C15.6152 16.7894 16.1349 16.9213 16.5746 17.1851C17.0144 17.449 17.3542 17.8194 17.594 18.2965C17.8366 18.7735 17.9578 19.3292 17.9578 19.9635C17.9578 20.5978 17.8366 21.1522 17.594 21.6266C17.3542 22.101 17.0144 22.4701 16.5746 22.7339C16.1349 22.9978 15.6152 23.1297 15.0155 23.1297ZM15.0235 21.9704C15.3487 21.9704 15.6205 21.8811 15.839 21.7025C16.0576 21.5213 16.2202 21.2788 16.3268 20.9749C16.436 20.6711 16.4907 20.3326 16.4907 19.9595C16.4907 19.5837 16.436 19.2439 16.3268 18.9401C16.2202 18.6336 16.0576 18.3898 15.839 18.2085C15.6205 18.0273 15.3487 17.9367 15.0235 17.9367C14.6904 17.9367 14.4132 18.0273 14.192 18.2085C13.9734 18.3898 13.8095 18.6336 13.7003 18.9401C13.5937 19.2439 13.5404 19.5837 13.5404 19.9595C13.5404 20.3326 13.5937 20.6711 13.7003 20.9749C13.8095 21.2788 13.9734 21.5213 14.192 21.7025C14.4132 21.8811 14.6904 21.9704 15.0235 21.9704ZM21.8566 25.4404C21.3369 25.4404 20.8905 25.3697 20.5173 25.2285C20.1442 25.0899 19.8444 24.9033 19.6179 24.6688C19.3913 24.4343 19.2341 24.1744 19.1461 23.8893L20.4494 23.5734C20.508 23.6934 20.5933 23.812 20.7052 23.9292C20.8172 24.0492 20.9677 24.1478 21.157 24.2251C21.3489 24.305 21.59 24.345 21.8805 24.345C22.291 24.345 22.6308 24.2451 22.9 24.0452C23.1691 23.8479 23.3037 23.5228 23.3037 23.0697V21.9064H23.2318C23.1571 22.0556 23.0479 22.2089 22.904 22.3661C22.7627 22.5234 22.5748 22.6553 22.3403 22.7619C22.1084 22.8685 21.8166 22.9218 21.4648 22.9218C20.9931 22.9218 20.5653 22.8112 20.1815 22.59C19.8004 22.3661 19.4966 22.033 19.2701 21.5906C19.0462 21.1455 18.9342 20.5885 18.9342 19.9195C18.9342 19.2453 19.0462 18.6763 19.2701 18.2125C19.4966 17.7461 19.8017 17.393 20.1855 17.1531C20.5693 16.9106 20.9971 16.7894 21.4688 16.7894C21.8286 16.7894 22.1244 16.8507 22.3563 16.9733C22.5908 17.0932 22.7774 17.2384 22.916 17.409C23.0545 17.5769 23.1598 17.7355 23.2318 17.8847H23.3117V16.8693H24.7389V23.1097C24.7389 23.6347 24.6136 24.0692 24.3631 24.413C24.1126 24.7568 23.7701 25.0139 23.3357 25.1845C22.9013 25.3551 22.4082 25.4404 21.8566 25.4404ZM21.8686 21.7865C22.175 21.7865 22.4362 21.7118 22.6521 21.5626C22.868 21.4134 23.0319 21.1988 23.1438 20.919C23.2558 20.6391 23.3117 20.3033 23.3117 19.9116C23.3117 19.5251 23.2558 19.1866 23.1438 18.8961C23.0345 18.6056 22.872 18.3804 22.6561 18.2205C22.4429 18.058 22.1804 17.9767 21.8686 17.9767C21.5461 17.9767 21.2769 18.0606 21.061 18.2285C20.8451 18.3964 20.6826 18.627 20.5733 18.9201C20.464 19.2106 20.4094 19.5411 20.4094 19.9116C20.4094 20.2873 20.464 20.6165 20.5733 20.899C20.6852 21.1788 20.8491 21.3974 21.065 21.5546C21.2836 21.7092 21.5514 21.7865 21.8686 21.7865ZM28.9005 23.1297C28.3008 23.1297 27.7811 22.9978 27.3414 22.7339C26.9017 22.4701 26.5605 22.101 26.318 21.6266C26.0781 21.1522 25.9582 20.5978 25.9582 19.9635C25.9582 19.3292 26.0781 18.7735 26.318 18.2965C26.5605 17.8194 26.9017 17.449 27.3414 17.1851C27.7811 16.9213 28.3008 16.7894 28.9005 16.7894C29.5001 16.7894 30.0198 16.9213 30.4596 17.1851C30.8993 17.449 31.2391 17.8194 31.479 18.2965C31.7215 18.7735 31.8428 19.3292 31.8428 19.9635C31.8428 20.5978 31.7215 21.1522 31.479 21.6266C31.2391 22.101 30.8993 22.4701 30.4596 22.7339C30.0198 22.9978 29.5001 23.1297 28.9005 23.1297ZM28.9085 21.9704C29.2336 21.9704 29.5055 21.8811 29.724 21.7025C29.9426 21.5213 30.1051 21.2788 30.2117 20.9749C30.321 20.6711 30.3756 20.3326 30.3756 19.9595C30.3756 19.5837 30.321 19.2439 30.2117 18.9401C30.1051 18.6336 29.9426 18.3898 29.724 18.2085C29.5055 18.0273 29.2336 17.9367 28.9085 17.9367C28.5754 17.9367 28.2982 18.0273 28.077 18.2085C27.8584 18.3898 27.6945 18.6336 27.5853 18.9401C27.4787 19.2439 27.4253 19.5837 27.4253 19.9595C27.4253 20.3326 27.4787 20.6711 27.5853 20.9749C27.6945 21.2788 27.8584 21.5213 28.077 21.7025C28.2982 21.8811 28.5754 21.9704 28.9085 21.9704Z" fill="white"/>
</svg>
