<svg width="24" height="24" viewBox="0 0 24 24" fill="none" xmlns="http://www.w3.org/2000/svg">
<path d="M19.3712 9.38702C17.6732 9.38702 16.979 8.18622 17.8233 6.71336C18.3111 5.85967 18.0203 4.77144 17.1666 4.28362L15.5436 3.35487C14.8025 2.91396 13.8456 3.17663 13.4047 3.91775L13.3015 4.09599C12.4572 5.56885 11.0688 5.56885 10.2151 4.09599L10.1119 3.91775C9.68972 3.17663 8.73284 2.91396 7.99172 3.35487L6.36876 4.28362C5.51507 4.77144 5.22425 5.86905 5.71208 6.72274C6.56577 8.18622 5.87156 9.38702 4.17355 9.38702C3.1979 9.38702 2.39111 10.1844 2.39111 11.1695V12.8206C2.39111 13.7962 3.18852 14.603 4.17355 14.603C5.87156 14.603 6.56577 15.8038 5.71208 17.2766C5.22425 18.1303 5.51507 19.2186 6.36876 19.7064L7.99172 20.6351C8.73284 21.0761 9.68973 20.8134 10.1306 20.0723L10.2338 19.894C11.0781 18.4212 12.4666 18.4212 13.3203 19.894L13.4235 20.0723C13.8644 20.8134 14.8213 21.0761 15.5624 20.6351L17.1853 19.7064C18.039 19.2186 18.3299 18.121 17.842 17.2766C16.9883 15.8038 17.6826 14.603 19.3806 14.603C20.3562 14.603 21.163 13.8056 21.163 12.8206V11.1695C21.1536 10.1938 20.3562 9.38702 19.3712 9.38702ZM11.7724 15.0439C10.0931 15.0439 8.72346 13.6742 8.72346 11.995C8.72346 10.3158 10.0931 8.9461 11.7724 8.9461C13.4516 8.9461 14.8213 10.3158 14.8213 11.995C14.8213 13.6742 13.4516 15.0439 11.7724 15.0439Z" fill="white" fill-opacity="0.88"/>
</svg>
